<svg data-v-fde0c5aa="" xmlns="http://www.w3.org/2000/svg" viewBox="0 0 300 300" class="iconAboveSlogan"><!----><defs data-v-fde0c5aa=""><!----></defs><rect data-v-fde0c5aa="" fill="#FDEDDB" x="0" y="0" width="300px" height="300px" class="logo-background-square"></rect><defs data-v-fde0c5aa=""><!----></defs><g data-v-fde0c5aa="" id="7e49d09d-e1a9-4737-af93-7b474f42ebe0" fill="#371C00" transform="matrix(2.4233386516571045,0,0,2.4233386516571045,18.812564065687173,149.40146462549941)"><path d="M10.25 13.49L8.98 13.49L8.98 11.42L8.98 11.42Q8.72 11.96 8.33 12.36L8.33 12.36L8.33 12.36Q7.94 12.76 7.46 13.02L7.46 13.02L7.46 13.02Q6.98 13.28 6.44 13.41L6.44 13.41L6.44 13.41Q5.89 13.54 5.33 13.54L5.33 13.54L5.33 13.54Q4.32 13.54 3.47 13.20L3.47 13.20L3.47 13.20Q2.61 12.86 1.92 12.12L1.92 12.12L1.92 12.12Q1.22 11.38 0.86 10.37L0.86 10.37L0.86 10.37Q0.49 9.36 0.49 8.26L0.49 8.26L0.49 8.26Q0.49 7.15 0.86 6.17L0.86 6.17L0.86 6.17Q1.22 5.18 1.88 4.45L1.88 4.45L1.88 4.45Q2.54 3.72 3.46 3.30L3.46 3.30L3.46 3.30Q4.37 2.88 5.43 2.88L5.43 2.88L5.43 2.88Q6.42 2.88 7.13 3.17L7.13 3.17L7.13 3.17Q7.83 3.45 8.34 3.85L8.34 3.85L8.34 3.85Q8.84 4.25 9.14 4.61L9.14 4.61L9.80 4.61L9.80 5.82L8.33 5.82L8.33 5.82Q7.88 5.04 7.12 4.59L7.12 4.59L7.12 4.59Q6.36 4.14 5.43 4.16L5.43 4.16L5.43 4.16Q4.64 4.16 3.99 4.49L3.99 4.49L3.99 4.49Q3.33 4.83 2.86 5.39L2.86 5.39L2.86 5.39Q2.39 5.96 2.13 6.70L2.13 6.70L2.13 6.70Q1.87 7.44 1.87 8.26L1.87 8.26L1.87 8.26Q1.87 9.17 2.16 9.95L2.16 9.95L2.16 9.95Q2.45 10.73 2.89 11.21L2.89 11.21L2.89 11.21Q3.34 11.70 3.99 12.01L3.99 12.01L3.99 12.01Q4.64 12.33 5.43 12.33L5.43 12.33L5.43 12.33Q6.75 12.33 7.59 11.69L7.59 11.69L7.59 11.69Q8.43 11.05 8.76 9.70L8.76 9.70L5.87 9.70L5.87 8.52L10.25 8.52L10.25 13.49ZM12.09 9.91L12.09 9.91L12.09 9.91Q12.10 9.07 12.36 8.38L12.36 8.38L12.36 8.38Q12.63 7.69 13.10 7.19L13.10 7.19L13.10 7.19Q13.57 6.70 14.22 6.43L14.22 6.43L14.22 6.43Q14.87 6.17 15.65 6.17L15.65 6.17L15.65 6.17Q16.43 6.17 17.09 6.43L17.09 6.43L17.09 6.43Q17.74 6.70 18.20 7.19L18.20 7.19L18.20 7.19Q18.67 7.68 18.93 8.37L18.93 8.37L18.93 8.37Q19.19 9.06 19.19 9.90L19.19 9.90L19.19 9.90Q19.19 10.73 18.93 11.42L18.93 11.42L18.93 11.42Q18.67 12.11 18.20 12.61L18.20 12.61L18.20 12.61Q17.74 13.11 17.09 13.39L17.09 13.39L17.09 13.39Q16.43 13.67 15.65 13.67L15.65 13.67L15.65 13.67Q14.85 13.67 14.20 13.39L14.20 13.39L14.20 13.39Q13.55 13.12 13.08 12.62L13.08 12.62L13.08 12.62Q12.62 12.13 12.36 11.44L12.36 11.44L12.36 11.44Q12.10 10.75 12.09 9.91ZM13.44 9.91L13.44 9.91L13.44 9.91Q13.44 10.52 13.61 11.01L13.61 11.01L13.61 11.01Q13.79 11.50 14.09 11.85L14.09 11.85L14.09 11.85Q14.40 12.20 14.80 12.38L14.80 12.38L14.80 12.38Q15.20 12.57 15.65 12.57L15.65 12.57L15.65 12.57Q16.12 12.57 16.53 12.39L16.53 12.39L16.53 12.39Q16.93 12.20 17.23 11.86L17.23 11.86L17.23 11.86Q17.53 11.51 17.71 11.02L17.71 11.02L17.71 11.02Q17.88 10.53 17.88 9.91L17.88 9.91L17.88 9.91Q17.88 9.27 17.71 8.77L17.71 8.77L17.71 8.77Q17.53 8.27 17.24 7.94L17.24 7.94L17.24 7.94Q16.94 7.60 16.53 7.43L16.53 7.43L16.53 7.43Q16.12 7.26 15.65 7.26L15.65 7.26L15.65 7.26Q15.20 7.26 14.80 7.43L14.80 7.43L14.80 7.43Q14.40 7.60 14.09 7.94L14.09 7.94L14.09 7.94Q13.79 8.27 13.61 8.77L13.61 8.77L13.61 8.77Q13.44 9.27 13.44 9.91ZM20.47 9.91L20.47 9.91L20.47 9.91Q20.47 9.07 20.74 8.38L20.74 8.38L20.74 8.38Q21 7.69 21.47 7.19L21.47 7.19L21.47 7.19Q21.94 6.70 22.59 6.43L22.59 6.43L22.59 6.43Q23.24 6.17 24.02 6.17L24.02 6.17L24.02 6.17Q24.81 6.17 25.46 6.43L25.46 6.43L25.46 6.43Q26.11 6.70 26.58 7.19L26.58 7.19L26.58 7.19Q27.04 7.68 27.30 8.37L27.30 8.37L27.30 8.37Q27.56 9.06 27.56 9.90L27.56 9.90L27.56 9.90Q27.56 10.73 27.30 11.42L27.30 11.42L27.30 11.42Q27.04 12.11 26.58 12.61L26.58 12.61L26.58 12.61Q26.11 13.11 25.46 13.39L25.46 13.39L25.46 13.39Q24.81 13.67 24.02 13.67L24.02 13.67L24.02 13.67Q23.22 13.67 22.57 13.39L22.57 13.39L22.57 13.39Q21.92 13.12 21.46 12.62L21.46 12.62L21.46 12.62Q20.99 12.13 20.73 11.44L20.73 11.44L20.73 11.44Q20.47 10.75 20.47 9.91ZM21.81 9.91L21.81 9.91L21.81 9.91Q21.81 10.52 21.99 11.01L21.99 11.01L21.99 11.01Q22.16 11.50 22.47 11.85L22.47 11.85L22.47 11.85Q22.77 12.20 23.17 12.38L23.17 12.38L23.17 12.38Q23.57 12.57 24.02 12.57L24.02 12.57L24.02 12.57Q24.49 12.57 24.90 12.39L24.90 12.39L24.90 12.39Q25.31 12.20 25.61 11.86L25.61 11.86L25.61 11.86Q25.91 11.51 26.08 11.02L26.08 11.02L26.08 11.02Q26.25 10.53 26.25 9.91L26.25 9.91L26.25 9.91Q26.25 9.27 26.08 8.77L26.08 8.77L26.08 8.77Q25.91 8.27 25.61 7.94L25.61 7.94L25.61 7.94Q25.31 7.60 24.90 7.43L24.90 7.43L24.90 7.43Q24.49 7.26 24.02 7.26L24.02 7.26L24.02 7.26Q23.57 7.26 23.17 7.43L23.17 7.43L23.17 7.43Q22.77 7.60 22.47 7.94L22.47 7.94L22.47 7.94Q22.16 8.27 21.99 8.77L21.99 8.77L21.99 8.77Q21.81 9.27 21.81 9.91ZM34.12 12.93L34.12 12.83L34.12 12.83Q33.77 13.20 33.31 13.41L33.31 13.41L33.31 13.41Q32.85 13.61 32.26 13.61L32.26 13.61L32.26 13.61Q31.54 13.61 30.92 13.36L30.92 13.36L30.92 13.36Q30.30 13.11 29.85 12.63L29.85 12.63L29.85 12.63Q29.39 12.15 29.14 11.45L29.14 11.45L29.14 11.45Q28.88 10.75 28.88 9.84L28.88 9.84L28.88 9.84Q28.88 9.02 29.13 8.35L29.13 8.35L29.13 8.35Q29.37 7.68 29.83 7.20L29.83 7.20L29.83 7.20Q30.28 6.73 30.91 6.46L30.91 6.46L30.91 6.46Q31.55 6.20 32.33 6.20L32.33 6.20L32.33 6.20Q32.86 6.20 33.29 6.32L33.29 6.32L33.29 6.32Q33.71 6.44 34.12 6.73L34.12 6.73L34.12 6.37L35.39 6.37L35.39 13.17L35.39 13.17Q35.39 14.85 34.59 15.72L34.59 15.72L34.59 15.72Q33.80 16.58 32.12 16.58L32.12 16.58L32.12 16.58Q31.75 16.58 31.34 16.52L31.34 16.52L31.34 16.52Q30.94 16.47 30.55 16.35L30.55 16.35L30.55 16.35Q30.15 16.23 29.78 16.04L29.78 16.04L29.78 16.04Q29.41 15.86 29.09 15.59L29.09 15.59L29.78 14.56L29.78 14.56Q29.98 14.74 30.25 14.89L30.25 14.89L30.25 14.89Q30.51 15.04 30.81 15.15L30.81 15.15L30.81 15.15Q31.11 15.25 31.43 15.31L31.43 15.31L31.43 15.31Q31.75 15.37 32.07 15.37L32.07 15.37L32.07 15.37Q32.60 15.37 32.99 15.26L32.99 15.26L32.99 15.26Q33.37 15.16 33.62 14.88L33.62 14.88L33.62 14.88Q33.87 14.60 34.00 14.13L34.00 14.13L34.00 14.13Q34.12 13.66 34.12 12.93L34.12 12.93ZM32.42 12.50L32.42 12.50L32.42 12.50Q32.74 12.50 33.00 12.44L33.00 12.44L33.00 12.44Q33.26 12.38 33.47 12.28L33.47 12.28L33.47 12.28Q33.68 12.18 33.84 12.05L33.84 12.05L33.84 12.05Q34.00 11.92 34.12 11.78L34.12 11.78L34.12 7.90L34.12 7.90Q33.77 7.59 33.31 7.46L33.31 7.46L33.31 7.46Q32.86 7.32 32.38 7.32L32.38 7.32L32.38 7.32Q31.93 7.32 31.53 7.49L31.53 7.49L31.53 7.49Q31.14 7.66 30.84 7.98L30.84 7.98L30.84 7.98Q30.54 8.30 30.37 8.76L30.37 8.76L30.37 8.76Q30.20 9.23 30.20 9.83L30.20 9.83L30.20 9.83Q30.20 10.49 30.37 10.99L30.37 10.99L30.37 10.99Q30.53 11.48 30.82 11.82L30.82 11.82L30.82 11.82Q31.12 12.16 31.53 12.33L31.53 12.33L31.53 12.33Q31.94 12.50 32.42 12.50ZM37.08 3.99L37.08 2.82L39.38 2.82L39.38 12.28L40.45 12.28L40.45 13.45L37.08 13.45L37.08 12.28L38.11 12.28L38.11 3.99L37.08 3.99ZM48.00 10.08L42.90 10.08L42.90 10.08Q42.90 10.38 42.94 10.63L42.94 10.63L42.94 10.63Q42.98 10.88 43.07 11.10L43.07 11.10L43.07 11.10Q43.32 11.79 43.88 12.13L43.88 12.13L43.88 12.13Q44.43 12.48 45.14 12.48L45.14 12.48L45.14 12.48Q45.69 12.48 46.21 12.32L46.21 12.32L46.21 12.32Q46.74 12.17 47.31 11.84L47.31 11.84L47.82 12.71L47.82 12.71Q47.13 13.19 46.42 13.42L46.42 13.42L46.42 13.42Q45.72 13.65 44.96 13.65L44.96 13.65L44.96 13.65Q44.24 13.65 43.63 13.41L43.63 13.41L43.63 13.41Q43.02 13.17 42.58 12.70L42.58 12.70L42.58 12.70Q42.14 12.23 41.89 11.53L41.89 11.53L41.89 11.53Q41.64 10.82 41.64 9.88L41.64 9.88L41.64 9.88Q41.64 9.13 41.85 8.45L41.85 8.45L41.85 8.45Q42.06 7.78 42.48 7.28L42.48 7.28L42.48 7.28Q42.90 6.77 43.52 6.48L43.52 6.48L43.52 6.48Q44.15 6.19 44.97 6.19L44.97 6.19L44.97 6.19Q45.77 6.19 46.31 6.43L46.31 6.43L46.31 6.43Q46.85 6.67 47.19 7.07L47.19 7.07L47.19 7.07Q47.52 7.47 47.70 7.98L47.70 7.98L47.70 7.98Q47.87 8.50 47.94 9.03L47.94 9.03L47.94 9.03Q47.97 9.29 47.98 9.56L47.98 9.56L47.98 9.56Q48.00 9.82 48.00 10.08L48.00 10.08ZM44.88 7.25L44.88 7.25L44.88 7.25Q44.44 7.25 44.11 7.38L44.11 7.38L44.11 7.38Q43.78 7.51 43.54 7.74L43.54 7.74L43.54 7.74Q43.31 7.98 43.17 8.32L43.17 8.32L43.17 8.32Q43.03 8.66 42.96 9.08L42.96 9.08L46.63 9.08L46.63 9.08Q46.61 8.69 46.51 8.35L46.51 8.35L46.51 8.35Q46.41 8.02 46.20 7.77L46.20 7.77L46.20 7.77Q46.00 7.53 45.68 7.39L45.68 7.39L45.68 7.39Q45.36 7.25 44.88 7.25ZM50.02 4.27L50.02 3.09L57.44 3.09L57.44 6.02L56.04 6.02L56.04 4.27L52.34 4.27L52.34 7.59L55.45 7.59L55.45 8.76L52.34 8.76L52.34 12.28L56.04 12.28L56.04 10.53L57.44 10.53L57.44 13.45L50.02 13.45L50.02 12.28L51.00 12.28L51.00 4.27L50.02 4.27ZM62.58 13.45L62.58 12.28L62.98 12.28L61.57 10.53L60.20 12.28L60.55 12.28L60.55 13.45L58.19 13.45L58.19 12.28L58.77 12.28L60.92 9.77L58.90 7.55L58.18 7.55L58.18 6.37L60.53 6.37L60.53 7.55L60.27 7.55L61.57 9.23L62.89 7.55L62.55 7.55L62.55 6.37L64.90 6.37L64.90 7.55L64.29 7.55L62.29 9.86L64.41 12.28L64.93 12.28L64.93 13.45L62.58 13.45ZM65.69 7.55L65.69 6.37L67.94 6.37L67.94 6.96L67.94 6.96Q68.39 6.61 68.93 6.41L68.93 6.41L68.93 6.41Q69.46 6.20 70.03 6.20L70.03 6.20L70.03 6.20Q70.72 6.20 71.31 6.46L71.31 6.46L71.31 6.46Q71.89 6.72 72.31 7.19L72.31 7.19L72.31 7.19Q72.73 7.66 72.96 8.32L72.96 8.32L72.96 8.32Q73.19 8.98 73.19 9.78L73.19 9.78L73.19 9.78Q73.19 10.64 72.93 11.34L72.93 11.34L72.93 11.34Q72.67 12.04 72.21 12.55L72.21 12.55L72.21 12.55Q71.75 13.05 71.11 13.33L71.11 13.33L71.11 13.33Q70.48 13.61 69.72 13.61L69.72 13.61L69.72 13.61Q69.18 13.61 68.76 13.50L68.76 13.50L68.76 13.50Q68.34 13.38 67.96 13.21L67.96 13.21L67.96 15.50L69.06 15.50L69.06 16.67L65.70 16.67L65.70 15.50L66.67 15.50L66.67 7.55L65.69 7.55ZM69.69 7.32L69.69 7.32L69.69 7.32Q69.20 7.32 68.75 7.52L68.75 7.52L68.75 7.52Q68.29 7.72 67.96 8.07L67.96 8.07L67.96 11.90L67.96 11.90Q68.18 12.13 68.60 12.32L68.60 12.32L68.60 12.32Q69.02 12.50 69.65 12.50L69.65 12.50L69.65 12.50Q70.09 12.50 70.49 12.33L70.49 12.33L70.49 12.33Q70.90 12.16 71.20 11.82L71.20 11.82L71.20 11.82Q71.51 11.48 71.70 10.99L71.70 10.99L71.70 10.99Q71.88 10.49 71.88 9.83L71.88 9.83L71.88 9.83Q71.88 9.23 71.71 8.76L71.71 8.76L71.71 8.76Q71.53 8.30 71.23 7.98L71.23 7.98L71.23 7.98Q70.94 7.66 70.54 7.49L70.54 7.49L70.54 7.49Q70.14 7.32 69.69 7.32ZM74.41 9.91L74.41 9.91L74.41 9.91Q74.42 9.07 74.68 8.38L74.68 8.38L74.68 8.38Q74.94 7.69 75.41 7.19L75.41 7.19L75.41 7.19Q75.89 6.70 76.54 6.43L76.54 6.43L76.54 6.43Q77.18 6.17 77.96 6.17L77.96 6.17L77.96 6.17Q78.75 6.17 79.40 6.43L79.40 6.43L79.40 6.43Q80.06 6.70 80.52 7.19L80.52 7.19L80.52 7.19Q80.99 7.68 81.25 8.37L81.25 8.37L81.25 8.37Q81.50 9.06 81.50 9.90L81.50 9.90L81.50 9.90Q81.50 10.73 81.25 11.42L81.25 11.42L81.25 11.42Q80.99 12.11 80.52 12.61L80.52 12.61L80.52 12.61Q80.06 13.11 79.40 13.39L79.40 13.39L79.40 13.39Q78.75 13.67 77.96 13.67L77.96 13.67L77.96 13.67Q77.16 13.67 76.51 13.39L76.51 13.39L76.51 13.39Q75.87 13.12 75.40 12.62L75.40 12.62L75.40 12.62Q74.94 12.13 74.68 11.44L74.68 11.44L74.68 11.44Q74.42 10.75 74.41 9.91ZM75.76 9.91L75.76 9.91L75.76 9.91Q75.76 10.52 75.93 11.01L75.93 11.01L75.93 11.01Q76.10 11.50 76.41 11.85L76.41 11.85L76.41 11.85Q76.71 12.20 77.11 12.38L77.11 12.38L77.11 12.38Q77.51 12.57 77.96 12.57L77.96 12.57L77.96 12.57Q78.44 12.57 78.84 12.39L78.84 12.39L78.84 12.39Q79.25 12.20 79.55 11.86L79.55 11.86L79.55 11.86Q79.85 11.51 80.02 11.02L80.02 11.02L80.02 11.02Q80.19 10.53 80.19 9.91L80.19 9.91L80.19 9.91Q80.19 9.27 80.02 8.77L80.02 8.77L80.02 8.77Q79.85 8.27 79.55 7.94L79.55 7.94L79.55 7.94Q79.26 7.60 78.85 7.43L78.85 7.43L78.85 7.43Q78.44 7.26 77.96 7.26L77.96 7.26L77.96 7.26Q77.51 7.26 77.11 7.43L77.11 7.43L77.11 7.43Q76.71 7.60 76.41 7.94L76.41 7.94L76.41 7.94Q76.10 8.27 75.93 8.77L75.93 8.77L75.93 8.77Q75.76 9.27 75.76 9.91ZM87.97 6.33L87.97 7.87L86.67 7.87L86.67 7.43L86.67 7.43Q86.45 7.43 86.21 7.52L86.21 7.52L86.21 7.52Q85.98 7.60 85.77 7.78L85.77 7.78L85.77 7.78Q85.57 7.95 85.41 8.22L85.41 8.22L85.41 8.22Q85.26 8.49 85.19 8.86L85.19 8.86L85.19 12.28L86.39 12.28L86.39 13.45L82.88 13.45L82.88 12.28L83.86 12.28L83.86 7.55L82.88 7.55L82.88 6.37L85.14 6.37L85.14 7.35L85.14 7.35Q85.26 7.13 85.42 6.94L85.42 6.94L85.42 6.94Q85.57 6.75 85.76 6.61L85.76 6.61L85.76 6.61Q85.95 6.47 86.18 6.40L86.18 6.40L86.18 6.40Q86.41 6.32 86.67 6.32L86.67 6.32L86.67 6.32Q87.03 6.32 87.34 6.32L87.34 6.32L87.34 6.32Q87.66 6.32 87.97 6.33L87.97 6.33ZM91.49 4.09L91.49 6.37L93.15 6.37L93.15 7.40L91.48 7.40L91.46 11.49L91.46 11.49Q91.46 11.91 91.55 12.17L91.55 12.17L91.55 12.17Q91.65 12.43 91.86 12.53L91.86 12.53L91.86 12.53Q92.07 12.63 92.34 12.63L92.34 12.63L92.34 12.63Q92.63 12.63 92.85 12.57L92.85 12.57L92.85 12.57Q93.06 12.52 93.32 12.40L93.32 12.40L93.62 13.25L93.62 13.25Q93.29 13.43 92.93 13.52L92.93 13.52L92.93 13.52Q92.57 13.62 92.07 13.62L92.07 13.62L92.07 13.62Q91.61 13.62 91.26 13.51L91.26 13.51L91.26 13.51Q90.92 13.40 90.68 13.13L90.68 13.13L90.68 13.13Q90.45 12.87 90.33 12.42L90.33 12.42L90.33 12.42Q90.21 11.97 90.21 11.30L90.21 11.30L90.23 7.40L89.11 7.40L89.11 6.37L90.25 6.37L90.25 4.68L91.49 4.09ZM100.95 10.08L95.85 10.08L95.85 10.08Q95.85 10.38 95.90 10.63L95.90 10.63L95.90 10.63Q95.94 10.88 96.02 11.10L96.02 11.10L96.02 11.10Q96.28 11.79 96.83 12.13L96.83 12.13L96.83 12.13Q97.39 12.48 98.10 12.48L98.10 12.48L98.10 12.48Q98.65 12.48 99.17 12.32L99.17 12.32L99.17 12.32Q99.70 12.17 100.27 11.84L100.27 11.84L100.78 12.71L100.78 12.71Q100.08 13.19 99.38 13.42L99.38 13.42L99.38 13.42Q98.68 13.65 97.92 13.65L97.92 13.65L97.92 13.65Q97.20 13.65 96.59 13.41L96.59 13.41L96.59 13.41Q95.98 13.17 95.54 12.70L95.54 12.70L95.54 12.70Q95.09 12.23 94.85 11.53L94.85 11.53L94.85 11.53Q94.60 10.82 94.60 9.88L94.60 9.88L94.60 9.88Q94.60 9.13 94.81 8.45L94.81 8.45L94.81 8.45Q95.02 7.78 95.44 7.28L95.44 7.28L95.44 7.28Q95.86 6.77 96.48 6.48L96.48 6.48L96.48 6.48Q97.10 6.19 97.93 6.19L97.93 6.19L97.93 6.19Q98.73 6.19 99.27 6.43L99.27 6.43L99.27 6.43Q99.80 6.67 100.14 7.07L100.14 7.07L100.14 7.07Q100.48 7.47 100.66 7.98L100.66 7.98L100.66 7.98Q100.83 8.50 100.90 9.03L100.90 9.03L100.90 9.03Q100.93 9.29 100.94 9.56L100.94 9.56L100.94 9.56Q100.95 9.82 100.95 10.08L100.95 10.08ZM97.84 7.25L97.84 7.25L97.84 7.25Q97.40 7.25 97.07 7.38L97.07 7.38L97.07 7.38Q96.74 7.51 96.50 7.74L96.50 7.74L96.50 7.74Q96.27 7.98 96.13 8.32L96.13 8.32L96.13 8.32Q95.99 8.66 95.92 9.08L95.92 9.08L99.59 9.08L99.59 9.08Q99.57 8.69 99.47 8.35L99.47 8.35L99.47 8.35Q99.37 8.02 99.16 7.77L99.16 7.77L99.16 7.77Q98.96 7.53 98.64 7.39L98.64 7.39L98.64 7.39Q98.31 7.25 97.84 7.25ZM107.78 6.33L107.78 7.87L106.48 7.87L106.48 7.43L106.48 7.43Q106.25 7.43 106.02 7.52L106.02 7.52L106.02 7.52Q105.78 7.60 105.57 7.78L105.57 7.78L105.57 7.78Q105.37 7.95 105.22 8.22L105.22 8.22L105.22 8.22Q105.06 8.49 104.99 8.86L104.99 8.86L104.99 12.28L106.20 12.28L106.20 13.45L102.68 13.45L102.68 12.28L103.66 12.28L103.67 7.55L102.68 7.55L102.68 6.37L104.95 6.37L104.95 7.35L104.95 7.35Q105.07 7.13 105.22 6.94L105.22 6.94L105.22 6.94Q105.38 6.75 105.56 6.61L105.56 6.61L105.56 6.61Q105.75 6.47 105.98 6.40L105.98 6.40L105.98 6.40Q106.21 6.32 106.48 6.32L106.48 6.32L106.48 6.32Q106.83 6.32 107.15 6.32L107.15 6.32L107.15 6.32Q107.46 6.32 107.78 6.33L107.78 6.33Z"></path></g><defs data-v-fde0c5aa=""><linearGradient data-v-fde0c5aa="" gradientTransform="rotate(25)" id="7fd18212-7811-4fcb-8cc3-c88410120b03" x1="0%" y1="0%" x2="100%" y2="0%"><stop data-v-fde0c5aa="" offset="0%" stop-color="#F05000" stop-opacity="1"></stop><stop data-v-fde0c5aa="" offset="100%" stop-color="#F7AA00" stop-opacity="1"></stop></linearGradient></defs><g data-v-fde0c5aa="" id="d64f537a-eb79-433a-b3af-306332951690" stroke="none" fill="url(#7fd18212-7811-4fcb-8cc3-c88410120b03)" transform="matrix(0.7682724595069885,0,0,0.7682724595069885,110.82696353828621,76.17267610551437)"><path d="M92.559 45.057a20.865 20.865 0 0 0-14.788-6.131 20.919 20.919 0 0 0-10.021 2.553c-.113-11.463-9.433-20.717-20.922-20.719-10.65.002-19.432 7.959-20.748 18.252a20.79 20.79 0 0 0-1.867-.086v.001a20.876 20.876 0 0 0-14.796 6.13 20.85 20.85 0 0 0-6.131 14.79 20.873 20.873 0 0 0 6.13 14.807 20.868 20.868 0 0 0 14.797 6.128h53.556a20.864 20.864 0 0 0 14.791-6.126 20.892 20.892 0 0 0 6.131-14.807 20.883 20.883 0 0 0-6.132-14.792zm-2.573 27.022a17.228 17.228 0 0 1-12.225 5.063h-53.55a17.212 17.212 0 0 1-12.224-5.064 17.224 17.224 0 0 1-5.062-12.231 17.216 17.216 0 0 1 5.063-12.216 17.217 17.217 0 0 1 12.225-5.064 17.217 17.217 0 0 1 12.224 5.064l2.573-2.575a20.82 20.82 0 0 0-9.343-5.402c1.02-8.586 8.304-15.237 17.159-15.254 9.549.017 17.271 7.741 17.289 17.288 0 .836-.061 1.656-.175 2.458-.332.292-.659.594-.977.911l2.572 2.572a17.23 17.23 0 0 1 12.233-5.062 17.214 17.214 0 0 1 12.215 5.064 17.23 17.23 0 0 1 5.065 12.218c-.002 4.432-1.681 8.849-5.062 12.23z"></path></g><defs data-v-fde0c5aa=""><!----></defs><g data-v-fde0c5aa="" id="7d51f225-b86e-42af-9cc3-bbabb23b7700" fill="#371C00" transform="matrix(0.6317017078399658,0,0,0.6317017078399658,52.05780881597768,197.5054425036228)"><path d="M9.70 6.80C9.48 6.19 9.16 5.68 8.74 5.25C8.32 4.82 7.83 4.48 7.25 4.26C6.68 4.03 6.02 3.92 5.32 3.92L1.89 3.92L0.70 3.92L0.70 4.19C0.70 4.34 0.80 4.42 0.98 4.44L1.12 4.44C1.19 4.44 1.29 4.45 1.43 4.45C1.57 4.45 1.72 4.47 1.89 4.47L1.89 13.26C1.72 13.26 1.57 13.27 1.43 13.27C1.29 13.27 1.19 13.29 1.12 13.29L0.98 13.29C0.80 13.30 0.70 13.38 0.70 13.54L0.70 13.82L1.89 13.82L5.32 13.82C6.02 13.82 6.68 13.71 7.25 13.48C7.83 13.26 8.32 12.92 8.74 12.49C9.16 12.05 9.48 11.54 9.70 10.92C9.93 10.30 10.05 9.63 10.05 8.86C10.05 8.11 9.93 7.42 9.70 6.80ZM9.02 10.72C8.82 11.27 8.57 11.72 8.22 12.10C7.87 12.47 7.45 12.75 6.96 12.95C6.47 13.15 5.92 13.24 5.32 13.24L2.60 13.24L2.60 4.49L5.32 4.49C5.92 4.49 6.47 4.59 6.96 4.79C7.45 4.98 7.87 5.26 8.22 5.64C8.57 6.02 8.82 6.47 9.02 7.01C9.21 7.56 9.31 8.18 9.31 8.86C9.31 9.56 9.21 10.18 9.02 10.72ZM21.39 6.73C20.90 6.73 20.45 6.83 20.06 7.00C19.67 7.17 19.35 7.41 19.08 7.71C18.82 8.02 18.61 8.39 18.47 8.81C18.33 9.23 18.24 9.69 18.24 10.19C18.24 10.78 18.33 11.31 18.48 11.77C18.63 12.24 18.84 12.61 19.12 12.94C19.40 13.26 19.74 13.50 20.13 13.66C20.52 13.83 20.96 13.90 21.43 13.90C21.70 13.90 21.97 13.89 22.22 13.83C22.47 13.78 22.72 13.71 22.95 13.62C23.17 13.54 23.38 13.44 23.56 13.31C23.74 13.19 23.90 13.06 24.01 12.92L23.83 12.70C23.80 12.66 23.74 12.63 23.69 12.63C23.65 12.63 23.56 12.66 23.46 12.74C23.37 12.82 23.23 12.91 23.04 13.01C22.88 13.10 22.65 13.17 22.40 13.26C22.15 13.34 21.84 13.38 21.49 13.38C21.10 13.38 20.75 13.31 20.43 13.17C20.10 13.03 19.84 12.84 19.61 12.57C19.39 12.31 19.22 11.97 19.10 11.58C18.97 11.19 18.91 10.71 18.91 10.19L18.91 10.07L23.94 10.07C24.01 10.07 24.05 10.05 24.08 10.01C24.11 9.97 24.14 9.90 24.14 9.80C24.14 9.31 24.07 8.88 23.93 8.50C23.79 8.12 23.60 7.78 23.35 7.53C23.11 7.28 22.82 7.08 22.48 6.94C22.15 6.80 21.78 6.73 21.39 6.73ZM21.41 7.24C21.73 7.24 22.01 7.29 22.27 7.41C22.54 7.52 22.76 7.67 22.95 7.88C23.13 8.09 23.28 8.33 23.38 8.62C23.48 8.92 23.53 9.25 23.53 9.63L18.94 9.63C18.98 9.27 19.07 8.93 19.19 8.64C19.32 8.34 19.49 8.09 19.70 7.88C19.91 7.67 20.16 7.52 20.44 7.41C20.72 7.29 21.04 7.24 21.41 7.24ZM33.28 4.89C33.33 4.94 33.40 4.98 33.47 5.01C33.54 5.04 33.63 5.07 33.71 5.07C33.80 5.07 33.88 5.04 33.95 5.01C34.02 4.98 34.09 4.94 34.15 4.89C34.20 4.83 34.26 4.76 34.29 4.69C34.31 4.62 34.34 4.54 34.34 4.45C34.34 4.37 34.31 4.30 34.29 4.21C34.26 4.14 34.20 4.07 34.15 4.02C34.09 3.96 34.02 3.91 33.95 3.88C33.88 3.85 33.80 3.84 33.71 3.84C33.63 3.84 33.54 3.85 33.47 3.88C33.40 3.91 33.33 3.96 33.28 4.02C33.22 4.07 33.18 4.14 33.15 4.21C33.12 4.28 33.10 4.37 33.10 4.45C33.10 4.54 33.12 4.62 33.15 4.69C33.18 4.76 33.22 4.83 33.28 4.89ZM34.78 13.29L34.71 13.29L34.59 13.29C34.55 13.29 34.48 13.27 34.38 13.27C34.29 13.27 34.17 13.26 34.05 13.26L34.05 6.85L33.38 6.85L32.37 6.85L32.37 7.13C32.37 7.28 32.47 7.36 32.65 7.38L32.72 7.38C32.75 7.38 32.79 7.39 32.83 7.39L33.04 7.39C33.14 7.39 33.25 7.41 33.38 7.41L33.38 13.26C33.22 13.26 33.08 13.29 32.97 13.29L32.73 13.29L32.65 13.29C32.47 13.30 32.37 13.38 32.37 13.54L32.37 13.82L33.38 13.82L34.05 13.82L35.06 13.82L35.06 13.54C35.06 13.38 34.96 13.30 34.78 13.29ZM50.55 13.29L50.48 13.29L50.37 13.29C50.33 13.29 50.26 13.27 50.16 13.27C50.06 13.27 49.95 13.26 49.83 13.26L49.83 9.37C49.83 8.96 49.77 8.60 49.67 8.27C49.57 7.95 49.43 7.67 49.24 7.45C49.04 7.22 48.80 7.06 48.51 6.93C48.22 6.80 47.88 6.75 47.50 6.75C46.98 6.75 46.51 6.87 46.09 7.11C45.67 7.36 45.30 7.67 44.98 8.08L44.93 7.03C44.91 6.92 44.84 6.86 44.72 6.86L44.35 6.86L43.34 6.86L43.34 7.13C43.34 7.28 43.43 7.36 43.61 7.38L43.69 7.38C43.72 7.38 43.75 7.39 43.79 7.39L44.00 7.39C44.10 7.39 44.23 7.41 44.35 7.41L44.35 13.26C44.18 13.26 44.04 13.29 43.93 13.29L43.71 13.29L43.61 13.29C43.43 13.30 43.34 13.38 43.34 13.54L43.34 13.82L44.35 13.82L45.01 13.82L46.02 13.82L46.02 13.54C46.02 13.38 45.93 13.30 45.75 13.29L45.67 13.29L45.57 13.29C45.53 13.29 45.46 13.27 45.36 13.27C45.26 13.27 45.14 13.26 45.01 13.26L45.01 8.60C45.32 8.19 45.67 7.87 46.06 7.63C46.45 7.39 46.87 7.28 47.33 7.28C47.95 7.28 48.41 7.46 48.71 7.83C49 8.20 49.15 8.71 49.15 9.37L49.15 13.82L49.83 13.82L50.83 13.82L50.83 13.54C50.83 13.38 50.74 13.30 50.55 13.29ZM62.10 6.73C61.61 6.73 61.17 6.83 60.77 7.00C60.38 7.17 60.06 7.41 59.79 7.71C59.53 8.02 59.32 8.39 59.18 8.81C59.04 9.23 58.95 9.69 58.95 10.19C58.95 10.78 59.04 11.31 59.19 11.77C59.35 12.24 59.56 12.61 59.84 12.94C60.12 13.26 60.45 13.50 60.84 13.66C61.24 13.83 61.67 13.90 62.15 13.90C62.41 13.90 62.68 13.89 62.93 13.83C63.18 13.78 63.43 13.71 63.66 13.62C63.88 13.54 64.09 13.44 64.27 13.31C64.46 13.19 64.61 13.06 64.72 12.92L64.54 12.70C64.51 12.66 64.46 12.63 64.40 12.63C64.36 12.63 64.27 12.66 64.18 12.74C64.08 12.82 63.94 12.91 63.76 13.01C63.59 13.10 63.36 13.17 63.11 13.26C62.86 13.34 62.55 13.38 62.20 13.38C61.81 13.38 61.46 13.31 61.14 13.17C60.82 13.03 60.55 12.84 60.33 12.57C60.10 12.31 59.93 11.97 59.81 11.58C59.68 11.19 59.63 10.71 59.63 10.19L59.63 10.07L64.65 10.07C64.72 10.07 64.76 10.05 64.79 10.01C64.82 9.97 64.85 9.90 64.85 9.80C64.85 9.31 64.78 8.88 64.64 8.50C64.50 8.12 64.32 7.78 64.06 7.53C63.83 7.28 63.53 7.08 63.20 6.94C62.86 6.80 62.50 6.73 62.10 6.73ZM62.12 7.24C62.44 7.24 62.72 7.29 62.99 7.41C63.25 7.52 63.48 7.67 63.66 7.88C63.84 8.09 63.99 8.33 64.09 8.62C64.19 8.92 64.25 9.25 64.25 9.63L59.65 9.63C59.70 9.27 59.78 8.93 59.91 8.64C60.03 8.34 60.20 8.09 60.41 7.88C60.62 7.67 60.87 7.52 61.15 7.41C61.43 7.29 61.75 7.24 62.12 7.24ZM92.46 6.80C92.23 6.19 91.91 5.68 91.49 5.25C91.07 4.82 90.58 4.48 90.01 4.26C89.43 4.03 88.77 3.92 88.07 3.92L84.64 3.92L83.45 3.92L83.45 4.19C83.45 4.34 83.55 4.42 83.73 4.44L83.87 4.44C83.94 4.44 84.04 4.45 84.18 4.45C84.32 4.45 84.48 4.47 84.64 4.47L84.64 13.26C84.48 13.26 84.32 13.27 84.18 13.27C84.04 13.27 83.94 13.29 83.87 13.29L83.73 13.29C83.55 13.30 83.45 13.38 83.45 13.54L83.45 13.82L84.64 13.82L88.07 13.82C88.77 13.82 89.43 13.71 90.01 13.48C90.58 13.26 91.07 12.92 91.49 12.49C91.91 12.05 92.23 11.54 92.46 10.92C92.68 10.30 92.81 9.63 92.81 8.86C92.81 8.11 92.68 7.42 92.46 6.80ZM91.77 10.72C91.57 11.27 91.32 11.72 90.97 12.10C90.62 12.47 90.20 12.75 89.71 12.95C89.22 13.15 88.68 13.24 88.07 13.24L85.36 13.24L85.36 4.49L88.07 4.49C88.68 4.49 89.22 4.59 89.71 4.79C90.20 4.98 90.62 5.26 90.97 5.64C91.32 6.02 91.57 6.47 91.77 7.01C91.97 7.56 92.06 8.18 92.06 8.86C92.06 9.56 91.97 10.18 91.77 10.72ZM106.62 13.29L106.53 13.29L106.30 13.29C106.20 13.29 106.09 13.27 105.98 13.27L105.98 9.28C105.98 8.89 105.94 8.55 105.84 8.23C105.74 7.91 105.60 7.64 105.42 7.42C105.24 7.20 105 7.03 104.72 6.92C104.44 6.79 104.12 6.73 103.74 6.73C103.24 6.73 102.79 6.83 102.38 7.01C101.98 7.20 101.60 7.48 101.23 7.84L101.35 8.05C101.39 8.13 101.46 8.18 101.56 8.18C101.63 8.18 101.72 8.12 101.82 8.02C101.92 7.92 102.06 7.84 102.23 7.73C102.40 7.62 102.58 7.52 102.82 7.42C103.05 7.32 103.33 7.28 103.67 7.28C104.22 7.28 104.64 7.45 104.92 7.80C105.20 8.15 105.32 8.64 105.32 9.28L105.32 10.01C104.54 10.02 103.87 10.09 103.31 10.21C102.75 10.32 102.28 10.47 101.92 10.65C101.56 10.84 101.30 11.06 101.14 11.31C100.97 11.56 100.88 11.83 100.88 12.12C100.88 12.45 100.94 12.73 101.04 12.95C101.15 13.17 101.29 13.36 101.46 13.50C101.63 13.64 101.84 13.75 102.06 13.82C102.28 13.89 102.51 13.93 102.75 13.93C103.03 13.93 103.29 13.90 103.53 13.85C103.77 13.79 103.98 13.71 104.19 13.61C104.40 13.51 104.59 13.38 104.79 13.23C104.97 13.08 105.15 12.91 105.35 12.73L105.45 13.62C105.48 13.75 105.57 13.82 105.71 13.82L105.73 13.82L105.98 13.82L106.90 13.82L106.90 13.54C106.90 13.38 106.81 13.30 106.62 13.29ZM105.32 12.26C105.15 12.43 105 12.60 104.83 12.74C104.66 12.88 104.48 13.01 104.29 13.12C104.09 13.23 103.88 13.30 103.66 13.36C103.43 13.41 103.18 13.44 102.91 13.44C102.73 13.44 102.55 13.43 102.38 13.37C102.21 13.31 102.07 13.24 101.95 13.13C101.82 13.02 101.71 12.88 101.64 12.71C101.56 12.54 101.53 12.35 101.53 12.11C101.53 11.86 101.60 11.63 101.75 11.44C101.91 11.24 102.13 11.09 102.44 10.95C102.75 10.81 103.14 10.70 103.61 10.61C104.09 10.53 104.66 10.47 105.32 10.46ZM117.25 13.93C117.54 13.93 117.82 13.86 118.10 13.75C118.37 13.64 118.59 13.48 118.78 13.29L118.59 12.98C118.55 12.94 118.52 12.92 118.48 12.92C118.45 12.92 118.40 12.94 118.34 12.99C118.29 13.05 118.22 13.09 118.13 13.15C118.05 13.20 117.94 13.26 117.81 13.31C117.68 13.37 117.56 13.38 117.39 13.38C117.25 13.38 117.11 13.36 117.00 13.31C116.89 13.27 116.79 13.20 116.70 13.12C116.62 13.03 116.55 12.92 116.49 12.78C116.44 12.64 116.42 12.49 116.42 12.29L116.42 7.57L118.62 7.57L118.62 7.07L116.42 7.07L116.42 4.41L116.10 4.41C116.05 4.41 116.02 4.44 115.99 4.47C115.96 4.49 115.93 4.54 115.93 4.58L115.77 7.07L114.58 7.15L114.58 7.41C114.58 7.46 114.59 7.49 114.62 7.52C114.65 7.55 114.70 7.57 114.76 7.57L115.75 7.57L115.75 12.33C115.75 12.88 115.88 13.27 116.14 13.54C116.41 13.80 116.77 13.93 117.25 13.93ZM129.99 6.73C129.50 6.73 129.05 6.83 128.66 7.00C128.27 7.17 127.95 7.41 127.68 7.71C127.41 8.02 127.20 8.39 127.06 8.81C126.92 9.23 126.84 9.69 126.84 10.19C126.84 10.78 126.92 11.31 127.08 11.77C127.23 12.24 127.44 12.61 127.72 12.94C128.00 13.26 128.34 13.50 128.73 13.66C129.12 13.83 129.56 13.90 130.03 13.90C130.30 13.90 130.56 13.89 130.82 13.83C131.07 13.78 131.32 13.71 131.54 13.62C131.77 13.54 131.98 13.44 132.16 13.31C132.34 13.19 132.50 13.06 132.61 12.92L132.43 12.70C132.40 12.66 132.34 12.63 132.29 12.63C132.24 12.63 132.16 12.66 132.06 12.74C131.96 12.82 131.82 12.91 131.64 13.01C131.47 13.10 131.25 13.17 131.00 13.26C130.75 13.34 130.44 13.38 130.09 13.38C129.70 13.38 129.35 13.31 129.02 13.17C128.70 13.03 128.44 12.84 128.21 12.57C127.99 12.31 127.82 11.97 127.69 11.58C127.57 11.19 127.51 10.71 127.51 10.19L127.51 10.07L132.54 10.07C132.61 10.07 132.65 10.05 132.68 10.01C132.71 9.97 132.73 9.90 132.73 9.80C132.73 9.31 132.66 8.88 132.52 8.50C132.38 8.12 132.20 7.78 131.95 7.53C131.71 7.28 131.42 7.08 131.08 6.94C130.75 6.80 130.38 6.73 129.99 6.73ZM130.00 7.24C130.33 7.24 130.61 7.29 130.87 7.41C131.14 7.52 131.36 7.67 131.54 7.88C131.73 8.09 131.88 8.33 131.98 8.62C132.08 8.92 132.13 9.25 132.13 9.63L127.54 9.63C127.58 9.27 127.67 8.93 127.79 8.64C127.92 8.34 128.09 8.09 128.30 7.88C128.51 7.67 128.76 7.52 129.04 7.41C129.32 7.29 129.64 7.24 130.00 7.24ZM148.20 13.29L148.13 13.29L148.02 13.29C147.98 13.29 147.91 13.27 147.81 13.27C147.71 13.27 147.60 13.26 147.48 13.26L147.48 9.37C147.48 8.96 147.42 8.60 147.32 8.27C147.22 7.95 147.08 7.67 146.89 7.45C146.69 7.22 146.45 7.06 146.16 6.93C145.87 6.80 145.53 6.75 145.15 6.75C144.63 6.75 144.16 6.87 143.74 7.11C143.32 7.36 142.95 7.67 142.63 8.08L142.58 7.03C142.56 6.92 142.49 6.86 142.37 6.86L142.00 6.86L140.99 6.86L140.99 7.13C140.99 7.28 141.08 7.36 141.26 7.38L141.34 7.38C141.37 7.38 141.40 7.39 141.44 7.39L141.65 7.39C141.75 7.39 141.88 7.41 142.00 7.41L142.00 13.26C141.83 13.26 141.69 13.29 141.58 13.29L141.36 13.29L141.26 13.29C141.08 13.30 140.99 13.38 140.99 13.54L140.99 13.82L142.00 13.82L142.66 13.82L143.67 13.82L143.67 13.54C143.67 13.38 143.58 13.30 143.40 13.29L143.32 13.29L143.22 13.29C143.18 13.29 143.11 13.27 143.01 13.27C142.91 13.27 142.79 13.26 142.66 13.26L142.66 8.60C142.97 8.19 143.32 7.87 143.71 7.63C144.10 7.39 144.52 7.28 144.98 7.28C145.60 7.28 146.06 7.46 146.36 7.83C146.65 8.20 146.80 8.71 146.80 9.37L146.80 13.82L147.48 13.82L148.48 13.82L148.48 13.54C148.48 13.38 148.39 13.30 148.20 13.29ZM169.78 6.73C169.40 6.73 169.06 6.79 168.76 6.90C168.45 7.01 168.20 7.15 167.97 7.35C167.75 7.55 167.58 7.77 167.47 8.05C167.36 8.33 167.29 8.64 167.29 8.97C167.29 9.39 167.38 9.76 167.57 10.08C167.75 10.40 168 10.65 168.34 10.85C168.20 10.92 168.08 11.00 167.97 11.10C167.86 11.20 167.78 11.28 167.71 11.40C167.64 11.51 167.58 11.61 167.54 11.72C167.50 11.83 167.48 11.93 167.48 12.03C167.48 12.29 167.54 12.49 167.68 12.64C167.82 12.80 168 12.89 168.24 12.98C167.82 13.12 167.47 13.33 167.23 13.59C166.99 13.86 166.87 14.18 166.87 14.55C166.87 14.80 166.94 15.05 167.06 15.27C167.19 15.50 167.37 15.69 167.62 15.86C167.87 16.03 168.18 16.17 168.55 16.27C168.91 16.37 169.34 16.42 169.83 16.42C170.31 16.42 170.76 16.35 171.15 16.23C171.54 16.10 171.85 15.95 172.13 15.74C172.41 15.53 172.62 15.29 172.76 15.02C172.90 14.76 172.97 14.49 172.97 14.20C172.97 13.89 172.91 13.64 172.77 13.44C172.63 13.24 172.44 13.12 172.21 13.01C171.99 12.89 171.71 12.82 171.42 12.78C171.12 12.74 170.83 12.71 170.52 12.70C170.21 12.68 169.90 12.66 169.61 12.64C169.32 12.63 169.05 12.61 168.83 12.56C168.60 12.50 168.41 12.43 168.27 12.32C168.13 12.21 168.06 12.05 168.06 11.86C168.06 11.72 168.11 11.56 168.22 11.41C168.34 11.26 168.49 11.13 168.69 11.02C169.01 11.14 169.37 11.19 169.78 11.19C170.14 11.19 170.48 11.14 170.79 11.03C171.09 10.92 171.35 10.78 171.57 10.58C171.79 10.39 171.95 10.16 172.07 9.88C172.20 9.60 172.26 9.31 172.26 8.97C172.26 8.72 172.23 8.48 172.16 8.26C172.09 8.04 171.98 7.84 171.85 7.66L172.91 7.57C173.04 7.56 173.11 7.50 173.11 7.39L173.11 7.15L171.32 7.15C171.11 7.01 170.87 6.92 170.62 6.85C170.37 6.78 170.09 6.73 169.78 6.73ZM172.37 14.29C172.37 14.53 172.30 14.74 172.17 14.94C172.05 15.13 171.86 15.33 171.64 15.47C171.42 15.61 171.15 15.72 170.84 15.81C170.53 15.89 170.20 15.92 169.85 15.92C169.47 15.92 169.13 15.88 168.84 15.81C168.55 15.74 168.28 15.62 168.08 15.50C167.89 15.37 167.73 15.22 167.62 15.05C167.51 14.88 167.47 14.69 167.47 14.48C167.47 14.31 167.51 14.17 167.57 14.03C167.62 13.89 167.71 13.76 167.82 13.65C167.93 13.54 168.04 13.43 168.20 13.34C168.35 13.26 168.52 13.17 168.70 13.10C168.94 13.15 169.19 13.17 169.47 13.19C169.75 13.20 170.00 13.22 170.28 13.23C170.56 13.24 170.81 13.26 171.07 13.29C171.32 13.31 171.54 13.38 171.74 13.45C171.93 13.52 172.07 13.62 172.19 13.76C172.30 13.90 172.37 14.07 172.37 14.29ZM169.78 10.74C169.48 10.74 169.23 10.70 168.99 10.61C168.76 10.53 168.56 10.40 168.39 10.25C168.22 10.09 168.11 9.91 168.03 9.70C167.94 9.49 167.90 9.25 167.90 8.99C167.90 8.72 167.94 8.48 168.03 8.26C168.11 8.04 168.22 7.87 168.39 7.71C168.56 7.56 168.76 7.43 168.99 7.35C169.23 7.27 169.48 7.22 169.78 7.22C170.07 7.22 170.34 7.27 170.56 7.35C170.79 7.43 170.98 7.56 171.15 7.71C171.32 7.87 171.44 8.04 171.53 8.26C171.61 8.48 171.65 8.71 171.65 8.97C171.65 9.24 171.61 9.49 171.53 9.70C171.44 9.91 171.32 10.09 171.16 10.25C171.01 10.40 170.81 10.53 170.58 10.61C170.34 10.70 170.07 10.74 169.78 10.74ZM184.35 6.73C183.86 6.73 183.41 6.83 183.02 7.00C182.63 7.17 182.31 7.41 182.04 7.71C181.78 8.02 181.57 8.39 181.43 8.81C181.29 9.23 181.20 9.69 181.20 10.19C181.20 10.78 181.29 11.31 181.44 11.77C181.59 12.24 181.80 12.61 182.08 12.94C182.36 13.26 182.70 13.50 183.09 13.66C183.48 13.83 183.92 13.90 184.39 13.90C184.66 13.90 184.93 13.89 185.18 13.83C185.43 13.78 185.68 13.71 185.91 13.62C186.13 13.54 186.34 13.44 186.52 13.31C186.70 13.19 186.86 13.06 186.97 12.92L186.79 12.70C186.76 12.66 186.70 12.63 186.65 12.63C186.61 12.63 186.52 12.66 186.42 12.74C186.33 12.82 186.19 12.91 186.00 13.01C185.84 13.10 185.61 13.17 185.36 13.26C185.11 13.34 184.80 13.38 184.45 13.38C184.06 13.38 183.71 13.31 183.39 13.17C183.06 13.03 182.80 12.84 182.57 12.57C182.35 12.31 182.18 11.97 182.06 11.58C181.93 11.19 181.87 10.71 181.87 10.19L181.87 10.07L186.90 10.07C186.97 10.07 187.01 10.05 187.04 10.01C187.07 9.97 187.10 9.90 187.10 9.80C187.10 9.31 187.03 8.88 186.89 8.50C186.75 8.12 186.56 7.78 186.31 7.53C186.07 7.28 185.78 7.08 185.44 6.94C185.11 6.80 184.74 6.73 184.35 6.73ZM184.37 7.24C184.69 7.24 184.97 7.29 185.23 7.41C185.50 7.52 185.72 7.67 185.91 7.88C186.09 8.09 186.24 8.33 186.34 8.62C186.44 8.92 186.49 9.25 186.49 9.63L181.90 9.63C181.94 9.27 182.03 8.93 182.15 8.64C182.28 8.34 182.45 8.09 182.66 7.88C182.87 7.67 183.12 7.52 183.40 7.41C183.68 7.29 184.00 7.24 184.37 7.24ZM202.54 13.29L202.45 13.29L202.36 13.29C202.31 13.29 202.24 13.27 202.15 13.27C202.05 13.27 201.92 13.26 201.80 13.26L201.80 9.37C201.80 8.96 201.75 8.60 201.66 8.27C201.56 7.95 201.42 7.67 201.22 7.45C201.03 7.22 200.79 7.06 200.49 6.93C200.20 6.80 199.86 6.75 199.49 6.75C198.97 6.75 198.51 6.86 198.09 7.10C197.68 7.34 197.32 7.66 196.99 8.05L196.99 3.64L196.32 3.64L195.31 3.64L195.31 3.91C195.31 4.06 195.41 4.14 195.59 4.16L195.66 4.16C195.69 4.16 195.73 4.17 195.78 4.17L195.99 4.17C196.08 4.17 196.20 4.19 196.32 4.19L196.32 13.26C196.17 13.26 196.03 13.29 195.92 13.29L195.68 13.29L195.59 13.29C195.41 13.30 195.31 13.38 195.31 13.54L195.31 13.82L196.32 13.82L196.99 13.82L198.00 13.82L198.00 13.54C198.00 13.38 197.90 13.30 197.72 13.29L197.65 13.29L197.54 13.29C197.50 13.29 197.43 13.27 197.33 13.27C197.23 13.27 197.12 13.26 196.99 13.26L196.99 8.60C197.30 8.19 197.65 7.87 198.04 7.63C198.44 7.39 198.86 7.28 199.32 7.28C199.93 7.28 200.40 7.46 200.69 7.83C200.98 8.20 201.14 8.71 201.14 9.37L201.14 13.82L201.80 13.82L202.80 13.82L202.80 13.54C202.80 13.38 202.72 13.30 202.54 13.29ZM214.06 6.73C213.56 6.73 213.11 6.83 212.72 7.00C212.32 7.17 211.99 7.41 211.71 7.71C211.43 8.02 211.23 8.40 211.09 8.85C210.95 9.30 210.87 9.79 210.87 10.33C210.87 10.88 210.95 11.37 211.09 11.80C211.23 12.24 211.43 12.63 211.71 12.94C211.99 13.24 212.32 13.48 212.72 13.65C213.11 13.82 213.56 13.90 214.06 13.90C214.56 13.90 215.00 13.82 215.39 13.65C215.78 13.48 216.12 13.24 216.38 12.94C216.65 12.63 216.87 12.24 217.01 11.80C217.15 11.37 217.22 10.88 217.22 10.33C217.22 9.79 217.15 9.30 217.01 8.85C216.87 8.40 216.65 8.02 216.38 7.71C216.12 7.41 215.78 7.17 215.39 7.00C215.00 6.83 214.56 6.73 214.06 6.73ZM214.06 13.38C213.64 13.38 213.28 13.31 212.97 13.17C212.66 13.03 212.39 12.82 212.18 12.56C211.97 12.29 211.83 11.97 211.72 11.59C211.61 11.21 211.57 10.79 211.57 10.33C211.57 9.87 211.61 9.45 211.72 9.07C211.83 8.69 211.97 8.37 212.18 8.11C212.39 7.84 212.66 7.62 212.97 7.48C213.28 7.34 213.64 7.27 214.06 7.27C214.48 7.27 214.83 7.34 215.14 7.48C215.45 7.62 215.71 7.84 215.92 8.11C216.13 8.37 216.29 8.69 216.38 9.07C216.48 9.45 216.54 9.87 216.54 10.33C216.54 10.79 216.48 11.21 216.38 11.59C216.29 11.97 216.13 12.29 215.92 12.56C215.71 12.82 215.45 13.03 215.14 13.17C214.83 13.31 214.48 13.38 214.06 13.38ZM213.44 4.83C213.44 4.75 213.42 4.68 213.39 4.61C213.36 4.54 213.32 4.48 213.26 4.42C213.21 4.37 213.15 4.33 213.08 4.30C213.01 4.27 212.93 4.24 212.86 4.24C212.79 4.24 212.72 4.27 212.65 4.30C212.58 4.33 212.52 4.37 212.46 4.42C212.41 4.48 212.37 4.54 212.34 4.61C212.31 4.68 212.30 4.75 212.30 4.83C212.30 4.90 212.31 4.97 212.34 5.04C212.37 5.11 212.41 5.17 212.46 5.22C212.52 5.28 212.58 5.32 212.65 5.35C212.72 5.38 212.79 5.39 212.86 5.39C212.93 5.39 213.01 5.38 213.08 5.35C213.15 5.32 213.21 5.28 213.26 5.22C213.32 5.17 213.36 5.11 213.39 5.04C213.42 4.97 213.44 4.90 213.44 4.83ZM215.84 4.83C215.84 4.75 215.81 4.68 215.78 4.61C215.75 4.54 215.71 4.48 215.66 4.42C215.60 4.37 215.54 4.33 215.47 4.30C215.40 4.27 215.33 4.24 215.26 4.24C215.18 4.24 215.11 4.27 215.04 4.30C214.97 4.33 214.91 4.37 214.86 4.42C214.80 4.48 214.76 4.54 214.73 4.61C214.70 4.68 214.68 4.75 214.68 4.83C214.68 4.90 214.70 4.97 214.73 5.04C214.76 5.11 214.80 5.17 214.86 5.22C214.91 5.28 214.97 5.32 215.04 5.35C215.11 5.38 215.18 5.39 215.26 5.39C215.33 5.39 215.40 5.38 215.47 5.35C215.54 5.32 215.60 5.28 215.66 5.22C215.71 5.17 215.77 5.11 215.80 5.04C215.82 4.97 215.84 4.90 215.84 4.83ZM229.96 6.80C229.78 6.76 229.60 6.73 229.39 6.73C228.84 6.73 228.38 6.89 228.00 7.21C227.63 7.53 227.33 7.98 227.11 8.54L227.05 7.07C227.05 6.99 227.02 6.93 227.00 6.90C226.97 6.87 226.91 6.86 226.83 6.86L226.48 6.86L226.48 6.86L225.47 6.86L225.47 7.13C225.47 7.31 225.57 7.36 225.74 7.38C225.82 7.38 225.90 7.38 226.48 7.41L226.48 13.26C225.90 13.29 225.82 13.29 225.74 13.29C225.57 13.30 225.47 13.36 225.47 13.54L225.47 13.82L226.48 13.82L227.14 13.82L227.14 13.82L228.14 13.82L228.14 13.54C228.14 13.36 228.05 13.30 227.88 13.29C227.79 13.29 227.71 13.29 227.14 13.26L227.14 9.30C227.35 8.68 227.63 8.20 227.96 7.88C228.30 7.56 228.73 7.39 229.26 7.39C229.40 7.39 229.53 7.41 229.64 7.42C229.75 7.43 229.87 7.45 229.94 7.48C230.02 7.50 230.06 7.53 230.12 7.55C230.17 7.56 230.22 7.57 230.24 7.57C230.33 7.57 230.37 7.53 230.38 7.46L230.47 7.00C230.31 6.92 230.15 6.85 229.96 6.80ZM241.42 6.73C240.93 6.73 240.48 6.83 240.09 7.00C239.69 7.17 239.37 7.41 239.11 7.71C238.84 8.02 238.63 8.39 238.49 8.81C238.35 9.23 238.27 9.69 238.27 10.19C238.27 10.78 238.35 11.31 238.50 11.77C238.66 12.24 238.87 12.61 239.15 12.94C239.43 13.26 239.76 13.50 240.16 13.66C240.55 13.83 240.98 13.90 241.46 13.90C241.72 13.90 241.99 13.89 242.24 13.83C242.49 13.78 242.75 13.71 242.97 13.62C243.19 13.54 243.40 13.44 243.59 13.31C243.77 13.19 243.92 13.06 244.03 12.92L243.85 12.70C243.82 12.66 243.77 12.63 243.71 12.63C243.67 12.63 243.59 12.66 243.49 12.74C243.39 12.82 243.25 12.91 243.07 13.01C242.90 13.10 242.68 13.17 242.42 13.26C242.17 13.34 241.86 13.38 241.51 13.38C241.12 13.38 240.77 13.31 240.45 13.17C240.13 13.03 239.86 12.84 239.64 12.57C239.41 12.31 239.25 11.97 239.12 11.58C238.99 11.19 238.94 10.71 238.94 10.19L238.94 10.07L243.96 10.07C244.03 10.07 244.08 10.05 244.10 10.01C244.13 9.97 244.16 9.90 244.16 9.80C244.16 9.31 244.09 8.88 243.95 8.50C243.81 8.12 243.63 7.78 243.38 7.53C243.14 7.28 242.84 7.08 242.51 6.94C242.17 6.80 241.81 6.73 241.42 6.73ZM241.43 7.24C241.75 7.24 242.03 7.29 242.30 7.41C242.56 7.52 242.79 7.67 242.97 7.88C243.15 8.09 243.31 8.33 243.40 8.62C243.50 8.92 243.56 9.25 243.56 9.63L238.97 9.63C239.01 9.27 239.09 8.93 239.22 8.64C239.34 8.34 239.51 8.09 239.72 7.88C239.93 7.67 240.18 7.52 240.46 7.41C240.74 7.29 241.07 7.24 241.43 7.24ZM259.63 13.29L259.56 13.29L259.45 13.29C259.41 13.29 259.34 13.27 259.24 13.27C259.14 13.27 259.03 13.26 258.90 13.26L258.90 9.37C258.90 8.96 258.85 8.60 258.75 8.27C258.65 7.95 258.51 7.67 258.31 7.45C258.12 7.22 257.88 7.06 257.59 6.93C257.29 6.80 256.96 6.75 256.58 6.75C256.06 6.75 255.58 6.87 255.16 7.11C254.74 7.36 254.38 7.67 254.06 8.08L254.00 7.03C253.99 6.92 253.92 6.86 253.79 6.86L253.43 6.86L252.42 6.86L252.42 7.13C252.42 7.28 252.50 7.36 252.69 7.38L252.77 7.38C252.80 7.38 252.83 7.39 252.87 7.39L253.08 7.39C253.18 7.39 253.30 7.41 253.43 7.41L253.43 13.26C253.26 13.26 253.12 13.29 253.01 13.29L252.78 13.29L252.69 13.29C252.50 13.30 252.42 13.38 252.42 13.54L252.42 13.82L253.43 13.82L254.09 13.82L255.09 13.82L255.09 13.54C255.09 13.38 255.01 13.30 254.83 13.29L254.74 13.29L254.65 13.29C254.60 13.29 254.53 13.27 254.44 13.27C254.34 13.27 254.21 13.26 254.09 13.26L254.09 8.60C254.39 8.19 254.74 7.87 255.14 7.63C255.53 7.39 255.95 7.28 256.41 7.28C257.03 7.28 257.49 7.46 257.78 7.83C258.08 8.20 258.23 8.71 258.23 9.37L258.23 13.82L258.90 13.82L259.91 13.82L259.91 13.54C259.91 13.38 259.81 13.30 259.63 13.29ZM285.17 13.54C285.17 13.38 285.08 13.30 284.90 13.29L284.83 13.29L284.73 13.29C284.69 13.29 284.62 13.27 284.54 13.27L284.23 13.27L284.23 3.63L283.57 3.63L282.56 3.63L282.56 3.91C282.56 4.06 282.66 4.14 282.84 4.16L282.91 4.16C282.94 4.16 282.97 4.17 283.01 4.17L283.23 4.17C283.33 4.17 283.44 4.19 283.57 4.19L283.57 7.76C283.32 7.42 283.02 7.17 282.67 7.00C282.32 6.82 281.92 6.73 281.44 6.73C280.95 6.73 280.52 6.83 280.14 7.01C279.76 7.20 279.45 7.46 279.19 7.78C278.92 8.11 278.74 8.50 278.60 8.93C278.46 9.37 278.40 9.84 278.40 10.35C278.40 11.54 278.64 12.43 279.12 13.02C279.59 13.61 280.27 13.90 281.12 13.90C281.64 13.90 282.10 13.79 282.52 13.54C282.94 13.29 283.29 12.95 283.60 12.53L283.67 13.64C283.68 13.76 283.75 13.82 283.86 13.82L284.23 13.82L285.17 13.82L285.17 13.61ZM283.57 12.01C283.28 12.43 282.94 12.77 282.56 13.01C282.18 13.24 281.78 13.37 281.32 13.37C280.60 13.37 280.04 13.13 279.66 12.64C279.29 12.15 279.09 11.38 279.09 10.35C279.09 9.88 279.13 9.48 279.24 9.10C279.36 8.72 279.51 8.39 279.72 8.12C279.93 7.85 280.18 7.63 280.49 7.48C280.80 7.32 281.16 7.25 281.57 7.25C281.97 7.25 282.35 7.34 282.67 7.50C283.00 7.67 283.30 7.95 283.57 8.34ZM294.32 4.89C294.38 4.94 294.45 4.98 294.52 5.01C294.59 5.04 294.67 5.07 294.76 5.07C294.84 5.07 294.92 5.04 294.99 5.01C295.06 4.98 295.13 4.94 295.19 4.89C295.25 4.83 295.30 4.76 295.33 4.69C295.36 4.62 295.39 4.54 295.39 4.45C295.39 4.37 295.36 4.30 295.33 4.21C295.30 4.14 295.25 4.07 295.19 4.02C295.13 3.96 295.06 3.91 294.99 3.88C294.92 3.85 294.84 3.84 294.76 3.84C294.67 3.84 294.59 3.85 294.52 3.88C294.45 3.91 294.38 3.96 294.32 4.02C294.27 4.07 294.22 4.14 294.20 4.21C294.17 4.28 294.14 4.37 294.14 4.45C294.14 4.54 294.17 4.62 294.20 4.69C294.22 4.76 294.27 4.83 294.32 4.89ZM295.82 13.29L295.75 13.29L295.64 13.29C295.60 13.29 295.53 13.27 295.43 13.27C295.33 13.27 295.22 13.26 295.09 13.26L295.09 6.85L294.42 6.85L293.41 6.85L293.41 7.13C293.41 7.28 293.51 7.36 293.69 7.38L293.76 7.38C293.79 7.38 293.83 7.39 293.87 7.39L294.08 7.39C294.18 7.39 294.29 7.41 294.42 7.41L294.42 13.26C294.27 13.26 294.13 13.29 294.01 13.29L293.78 13.29L293.69 13.29C293.51 13.30 293.41 13.38 293.41 13.54L293.41 13.82L294.42 13.82L295.09 13.82L296.10 13.82L296.10 13.54C296.10 13.38 296.00 13.30 295.82 13.29ZM308.88 6.80C308.70 6.76 308.52 6.73 308.31 6.73C307.76 6.73 307.30 6.89 306.92 7.21C306.54 7.53 306.25 7.98 306.03 8.54L305.97 7.07C305.97 6.99 305.94 6.93 305.91 6.90C305.89 6.87 305.83 6.86 305.75 6.86L305.40 6.86L305.40 6.86L304.39 6.86L304.39 7.13C304.39 7.31 304.49 7.36 304.65 7.38C304.74 7.38 304.82 7.38 305.40 7.41L305.40 13.26C304.82 13.29 304.74 13.29 304.65 13.29C304.49 13.30 304.39 13.36 304.39 13.54L304.39 13.82L305.40 13.82L306.05 13.82L306.05 13.82L307.06 13.82L307.06 13.54C307.06 13.36 306.96 13.30 306.80 13.29C306.71 13.29 306.63 13.29 306.05 13.26L306.05 9.30C306.26 8.68 306.54 8.20 306.88 7.88C307.22 7.56 307.65 7.39 308.18 7.39C308.32 7.39 308.45 7.41 308.56 7.42C308.67 7.43 308.78 7.45 308.85 7.48C308.94 7.50 308.98 7.53 309.04 7.55C309.09 7.56 309.13 7.57 309.16 7.57C309.25 7.57 309.29 7.53 309.30 7.46L309.39 7.00C309.23 6.92 309.06 6.85 308.88 6.80Z"></path></g></svg>