<svg data-v-fde0c5aa="" xmlns="http://www.w3.org/2000/svg" viewBox="0 0 300 300" class="font"><!----><defs data-v-fde0c5aa=""><!----></defs><rect data-v-fde0c5aa="" fill="#FDEDDB" x="0" y="0" width="300px" height="300px" class="logo-background-square"></rect><defs data-v-fde0c5aa=""><linearGradient data-v-fde0c5aa="" gradientTransform="rotate(25)" id="05499d0b-3f93-4fda-8ff8-be40a834fad3" x1="0%" y1="0%" x2="100%" y2="0%"><stop data-v-fde0c5aa="" offset="0%" stop-color="#F05000" stop-opacity="1"></stop><stop data-v-fde0c5aa="" offset="100%" stop-color="#F7AA00" stop-opacity="1"></stop></linearGradient></defs><g data-v-fde0c5aa="" id="db919ed8-427f-4e67-8fb8-2b85890147e4" fill="url(#05499d0b-3f93-4fda-8ff8-be40a834fad3)" transform="matrix(2.0505173206329346,0,0,2.0505173206329346,38.99524651711992,130.01770892925015)"><path d="M10.25 13.49L8.98 13.49L8.98 11.42L8.98 11.42Q8.72 11.96 8.33 12.36L8.33 12.36L8.33 12.36Q7.94 12.76 7.46 13.02L7.46 13.02L7.46 13.02Q6.98 13.28 6.44 13.41L6.44 13.41L6.44 13.41Q5.89 13.54 5.33 13.54L5.33 13.54L5.33 13.54Q4.32 13.54 3.47 13.20L3.47 13.20L3.47 13.20Q2.61 12.86 1.92 12.12L1.92 12.12L1.92 12.12Q1.22 11.38 0.86 10.37L0.86 10.37L0.86 10.37Q0.49 9.36 0.49 8.26L0.49 8.26L0.49 8.26Q0.49 7.15 0.86 6.17L0.86 6.17L0.86 6.17Q1.22 5.18 1.88 4.45L1.88 4.45L1.88 4.45Q2.54 3.72 3.46 3.30L3.46 3.30L3.46 3.30Q4.37 2.88 5.43 2.88L5.43 2.88L5.43 2.88Q6.42 2.88 7.13 3.17L7.13 3.17L7.13 3.17Q7.83 3.45 8.34 3.85L8.34 3.85L8.34 3.85Q8.84 4.25 9.14 4.61L9.14 4.61L9.80 4.61L9.80 5.82L8.33 5.82L8.33 5.82Q7.88 5.04 7.12 4.59L7.12 4.59L7.12 4.59Q6.36 4.14 5.43 4.16L5.43 4.16L5.43 4.16Q4.64 4.16 3.99 4.49L3.99 4.49L3.99 4.49Q3.33 4.83 2.86 5.39L2.86 5.39L2.86 5.39Q2.39 5.96 2.13 6.70L2.13 6.70L2.13 6.70Q1.87 7.44 1.87 8.26L1.87 8.26L1.87 8.26Q1.87 9.17 2.16 9.95L2.16 9.95L2.16 9.95Q2.45 10.73 2.89 11.21L2.89 11.21L2.89 11.21Q3.34 11.70 3.99 12.01L3.99 12.01L3.99 12.01Q4.64 12.33 5.43 12.33L5.43 12.33L5.43 12.33Q6.75 12.33 7.59 11.69L7.59 11.69L7.59 11.69Q8.43 11.05 8.76 9.70L8.76 9.70L5.87 9.70L5.87 8.52L10.25 8.52L10.25 13.49ZM12.09 9.91L12.09 9.91L12.09 9.91Q12.10 9.07 12.36 8.38L12.36 8.38L12.36 8.38Q12.63 7.69 13.10 7.19L13.10 7.19L13.10 7.19Q13.57 6.70 14.22 6.43L14.22 6.43L14.22 6.43Q14.87 6.17 15.65 6.17L15.65 6.17L15.65 6.17Q16.43 6.17 17.09 6.43L17.09 6.43L17.09 6.43Q17.74 6.70 18.20 7.19L18.20 7.19L18.20 7.19Q18.67 7.68 18.93 8.37L18.93 8.37L18.93 8.37Q19.19 9.06 19.19 9.90L19.19 9.90L19.19 9.90Q19.19 10.73 18.93 11.42L18.93 11.42L18.93 11.42Q18.67 12.11 18.20 12.61L18.20 12.61L18.20 12.61Q17.74 13.11 17.09 13.39L17.09 13.39L17.09 13.39Q16.43 13.67 15.65 13.67L15.65 13.67L15.65 13.67Q14.85 13.67 14.20 13.39L14.20 13.39L14.20 13.39Q13.55 13.12 13.08 12.62L13.08 12.62L13.08 12.62Q12.62 12.13 12.36 11.44L12.36 11.44L12.36 11.44Q12.10 10.75 12.09 9.91ZM13.44 9.91L13.44 9.91L13.44 9.91Q13.44 10.52 13.61 11.01L13.61 11.01L13.61 11.01Q13.79 11.50 14.09 11.85L14.09 11.85L14.09 11.85Q14.40 12.20 14.80 12.38L14.80 12.38L14.80 12.38Q15.20 12.57 15.65 12.57L15.65 12.57L15.65 12.57Q16.12 12.57 16.53 12.39L16.53 12.39L16.53 12.39Q16.93 12.20 17.23 11.86L17.23 11.86L17.23 11.86Q17.53 11.51 17.71 11.02L17.71 11.02L17.71 11.02Q17.88 10.53 17.88 9.91L17.88 9.91L17.88 9.91Q17.88 9.27 17.71 8.77L17.71 8.77L17.71 8.77Q17.53 8.27 17.24 7.94L17.24 7.94L17.24 7.94Q16.94 7.60 16.53 7.43L16.53 7.43L16.53 7.43Q16.12 7.26 15.65 7.26L15.65 7.26L15.65 7.26Q15.20 7.26 14.80 7.43L14.80 7.43L14.80 7.43Q14.40 7.60 14.09 7.94L14.09 7.94L14.09 7.94Q13.79 8.27 13.61 8.77L13.61 8.77L13.61 8.77Q13.44 9.27 13.44 9.91ZM20.47 9.91L20.47 9.91L20.47 9.91Q20.47 9.07 20.74 8.38L20.74 8.38L20.74 8.38Q21 7.69 21.47 7.19L21.47 7.19L21.47 7.19Q21.94 6.70 22.59 6.43L22.59 6.43L22.59 6.43Q23.24 6.17 24.02 6.17L24.02 6.17L24.02 6.17Q24.81 6.17 25.46 6.43L25.46 6.43L25.46 6.43Q26.11 6.70 26.58 7.19L26.58 7.19L26.58 7.19Q27.04 7.68 27.30 8.37L27.30 8.37L27.30 8.37Q27.56 9.06 27.56 9.90L27.56 9.90L27.56 9.90Q27.56 10.73 27.30 11.42L27.30 11.42L27.30 11.42Q27.04 12.11 26.58 12.61L26.58 12.61L26.58 12.61Q26.11 13.11 25.46 13.39L25.46 13.39L25.46 13.39Q24.81 13.67 24.02 13.67L24.02 13.67L24.02 13.67Q23.22 13.67 22.57 13.39L22.57 13.39L22.57 13.39Q21.92 13.12 21.46 12.62L21.46 12.62L21.46 12.62Q20.99 12.13 20.73 11.44L20.73 11.44L20.73 11.44Q20.47 10.75 20.47 9.91ZM21.81 9.91L21.81 9.91L21.81 9.91Q21.81 10.52 21.99 11.01L21.99 11.01L21.99 11.01Q22.16 11.50 22.47 11.85L22.47 11.85L22.47 11.85Q22.77 12.20 23.17 12.38L23.17 12.38L23.17 12.38Q23.57 12.57 24.02 12.57L24.02 12.57L24.02 12.57Q24.49 12.57 24.90 12.39L24.90 12.39L24.90 12.39Q25.31 12.20 25.61 11.86L25.61 11.86L25.61 11.86Q25.91 11.51 26.08 11.02L26.08 11.02L26.08 11.02Q26.25 10.53 26.25 9.91L26.25 9.91L26.25 9.91Q26.25 9.27 26.08 8.77L26.08 8.77L26.08 8.77Q25.91 8.27 25.61 7.94L25.61 7.94L25.61 7.94Q25.31 7.60 24.90 7.43L24.90 7.43L24.90 7.43Q24.49 7.26 24.02 7.26L24.02 7.26L24.02 7.26Q23.57 7.26 23.17 7.43L23.17 7.43L23.17 7.43Q22.77 7.60 22.47 7.94L22.47 7.94L22.47 7.94Q22.16 8.27 21.99 8.77L21.99 8.77L21.99 8.77Q21.81 9.27 21.81 9.91ZM34.12 12.93L34.12 12.83L34.12 12.83Q33.77 13.20 33.31 13.41L33.31 13.41L33.31 13.41Q32.85 13.61 32.26 13.61L32.26 13.61L32.26 13.61Q31.54 13.61 30.92 13.36L30.92 13.36L30.92 13.36Q30.30 13.11 29.85 12.63L29.85 12.63L29.85 12.63Q29.39 12.15 29.14 11.45L29.14 11.45L29.14 11.45Q28.88 10.75 28.88 9.84L28.88 9.84L28.88 9.84Q28.88 9.02 29.13 8.35L29.13 8.35L29.13 8.35Q29.37 7.68 29.83 7.20L29.83 7.20L29.83 7.20Q30.28 6.73 30.91 6.46L30.91 6.46L30.91 6.46Q31.55 6.20 32.33 6.20L32.33 6.20L32.33 6.20Q32.86 6.20 33.29 6.32L33.29 6.32L33.29 6.32Q33.71 6.44 34.12 6.73L34.12 6.73L34.12 6.37L35.39 6.37L35.39 13.17L35.39 13.17Q35.39 14.85 34.59 15.72L34.59 15.72L34.59 15.72Q33.80 16.58 32.12 16.58L32.12 16.58L32.12 16.58Q31.75 16.58 31.34 16.52L31.34 16.52L31.34 16.52Q30.94 16.47 30.55 16.35L30.55 16.35L30.55 16.35Q30.15 16.23 29.78 16.04L29.78 16.04L29.78 16.04Q29.41 15.86 29.09 15.59L29.09 15.59L29.78 14.56L29.78 14.56Q29.98 14.74 30.25 14.89L30.25 14.89L30.25 14.89Q30.51 15.04 30.81 15.15L30.81 15.15L30.81 15.15Q31.11 15.25 31.43 15.31L31.43 15.31L31.43 15.31Q31.75 15.37 32.07 15.37L32.07 15.37L32.07 15.37Q32.60 15.37 32.99 15.26L32.99 15.26L32.99 15.26Q33.37 15.16 33.62 14.88L33.62 14.88L33.62 14.88Q33.87 14.60 34.00 14.13L34.00 14.13L34.00 14.13Q34.12 13.66 34.12 12.93L34.12 12.93ZM32.42 12.50L32.42 12.50L32.42 12.50Q32.74 12.50 33.00 12.44L33.00 12.44L33.00 12.44Q33.26 12.38 33.47 12.28L33.47 12.28L33.47 12.28Q33.68 12.18 33.84 12.05L33.84 12.05L33.84 12.05Q34.00 11.92 34.12 11.78L34.12 11.78L34.12 7.90L34.12 7.90Q33.77 7.59 33.31 7.46L33.31 7.46L33.31 7.46Q32.86 7.32 32.38 7.32L32.38 7.32L32.38 7.32Q31.93 7.32 31.53 7.49L31.53 7.49L31.53 7.49Q31.14 7.66 30.84 7.98L30.84 7.98L30.84 7.98Q30.54 8.30 30.37 8.76L30.37 8.76L30.37 8.76Q30.20 9.23 30.20 9.83L30.20 9.83L30.20 9.83Q30.20 10.49 30.37 10.99L30.37 10.99L30.37 10.99Q30.53 11.48 30.82 11.82L30.82 11.82L30.82 11.82Q31.12 12.16 31.53 12.33L31.53 12.33L31.53 12.33Q31.94 12.50 32.42 12.50ZM37.08 3.99L37.08 2.82L39.38 2.82L39.38 12.28L40.45 12.28L40.45 13.45L37.08 13.45L37.08 12.28L38.11 12.28L38.11 3.99L37.08 3.99ZM48.00 10.08L42.90 10.08L42.90 10.08Q42.90 10.38 42.94 10.63L42.94 10.63L42.94 10.63Q42.98 10.88 43.07 11.10L43.07 11.10L43.07 11.10Q43.32 11.79 43.88 12.13L43.88 12.13L43.88 12.13Q44.43 12.48 45.14 12.48L45.14 12.48L45.14 12.48Q45.69 12.48 46.21 12.32L46.21 12.32L46.21 12.32Q46.74 12.17 47.31 11.84L47.31 11.84L47.82 12.71L47.82 12.71Q47.13 13.19 46.42 13.42L46.42 13.42L46.42 13.42Q45.72 13.65 44.96 13.65L44.96 13.65L44.96 13.65Q44.24 13.65 43.63 13.41L43.63 13.41L43.63 13.41Q43.02 13.17 42.58 12.70L42.58 12.70L42.58 12.70Q42.14 12.23 41.89 11.53L41.89 11.53L41.89 11.53Q41.64 10.82 41.64 9.88L41.64 9.88L41.64 9.88Q41.64 9.13 41.85 8.45L41.85 8.45L41.85 8.45Q42.06 7.78 42.48 7.28L42.48 7.28L42.48 7.28Q42.90 6.77 43.52 6.48L43.52 6.48L43.52 6.48Q44.15 6.19 44.97 6.19L44.97 6.19L44.97 6.19Q45.77 6.19 46.31 6.43L46.31 6.43L46.31 6.43Q46.85 6.67 47.19 7.07L47.19 7.07L47.19 7.07Q47.52 7.47 47.70 7.98L47.70 7.98L47.70 7.98Q47.87 8.50 47.94 9.03L47.94 9.03L47.94 9.03Q47.97 9.29 47.98 9.56L47.98 9.56L47.98 9.56Q48.00 9.82 48.00 10.08L48.00 10.08ZM44.88 7.25L44.88 7.25L44.88 7.25Q44.44 7.25 44.11 7.38L44.11 7.38L44.11 7.38Q43.78 7.51 43.54 7.74L43.54 7.74L43.54 7.74Q43.31 7.98 43.17 8.32L43.17 8.32L43.17 8.32Q43.03 8.66 42.96 9.08L42.96 9.08L46.63 9.08L46.63 9.08Q46.61 8.69 46.51 8.35L46.51 8.35L46.51 8.35Q46.41 8.02 46.20 7.77L46.20 7.77L46.20 7.77Q46.00 7.53 45.68 7.39L45.68 7.39L45.68 7.39Q45.36 7.25 44.88 7.25ZM50.02 4.27L50.02 3.09L57.44 3.09L57.44 6.02L56.04 6.02L56.04 4.27L52.34 4.27L52.34 7.59L55.45 7.59L55.45 8.76L52.34 8.76L52.34 12.28L56.04 12.28L56.04 10.53L57.44 10.53L57.44 13.45L50.02 13.45L50.02 12.28L51.00 12.28L51.00 4.27L50.02 4.27ZM62.58 13.45L62.58 12.28L62.98 12.28L61.57 10.53L60.20 12.28L60.55 12.28L60.55 13.45L58.19 13.45L58.19 12.28L58.77 12.28L60.92 9.77L58.90 7.55L58.18 7.55L58.18 6.37L60.53 6.37L60.53 7.55L60.27 7.55L61.57 9.23L62.89 7.55L62.55 7.55L62.55 6.37L64.90 6.37L64.90 7.55L64.29 7.55L62.29 9.86L64.41 12.28L64.93 12.28L64.93 13.45L62.58 13.45ZM65.69 7.55L65.69 6.37L67.94 6.37L67.94 6.96L67.94 6.96Q68.39 6.61 68.93 6.41L68.93 6.41L68.93 6.41Q69.46 6.20 70.03 6.20L70.03 6.20L70.03 6.20Q70.72 6.20 71.31 6.46L71.31 6.46L71.31 6.46Q71.89 6.72 72.31 7.19L72.31 7.19L72.31 7.19Q72.73 7.66 72.96 8.32L72.96 8.32L72.96 8.32Q73.19 8.98 73.19 9.78L73.19 9.78L73.19 9.78Q73.19 10.64 72.93 11.34L72.93 11.34L72.93 11.34Q72.67 12.04 72.21 12.55L72.21 12.55L72.21 12.55Q71.75 13.05 71.11 13.33L71.11 13.33L71.11 13.33Q70.48 13.61 69.72 13.61L69.72 13.61L69.72 13.61Q69.18 13.61 68.76 13.50L68.76 13.50L68.76 13.50Q68.34 13.38 67.96 13.21L67.96 13.21L67.96 15.50L69.06 15.50L69.06 16.67L65.70 16.67L65.70 15.50L66.67 15.50L66.67 7.55L65.69 7.55ZM69.69 7.32L69.69 7.32L69.69 7.32Q69.20 7.32 68.75 7.52L68.75 7.52L68.75 7.52Q68.29 7.72 67.96 8.07L67.96 8.07L67.96 11.90L67.96 11.90Q68.18 12.13 68.60 12.32L68.60 12.32L68.60 12.32Q69.02 12.50 69.65 12.50L69.65 12.50L69.65 12.50Q70.09 12.50 70.49 12.33L70.49 12.33L70.49 12.33Q70.90 12.16 71.20 11.82L71.20 11.82L71.20 11.82Q71.51 11.48 71.70 10.99L71.70 10.99L71.70 10.99Q71.88 10.49 71.88 9.83L71.88 9.83L71.88 9.83Q71.88 9.23 71.71 8.76L71.71 8.76L71.71 8.76Q71.53 8.30 71.23 7.98L71.23 7.98L71.23 7.98Q70.94 7.66 70.54 7.49L70.54 7.49L70.54 7.49Q70.14 7.32 69.69 7.32ZM74.41 9.91L74.41 9.91L74.41 9.91Q74.42 9.07 74.68 8.38L74.68 8.38L74.68 8.38Q74.94 7.69 75.41 7.19L75.41 7.19L75.41 7.19Q75.89 6.70 76.54 6.43L76.54 6.43L76.54 6.43Q77.18 6.17 77.96 6.17L77.96 6.17L77.96 6.17Q78.75 6.17 79.40 6.43L79.40 6.43L79.40 6.43Q80.06 6.70 80.52 7.19L80.52 7.19L80.52 7.19Q80.99 7.68 81.25 8.37L81.25 8.37L81.25 8.37Q81.50 9.06 81.50 9.90L81.50 9.90L81.50 9.90Q81.50 10.73 81.25 11.42L81.25 11.42L81.25 11.42Q80.99 12.11 80.52 12.61L80.52 12.61L80.52 12.61Q80.06 13.11 79.40 13.39L79.40 13.39L79.40 13.39Q78.75 13.67 77.96 13.67L77.96 13.67L77.96 13.67Q77.16 13.67 76.51 13.39L76.51 13.39L76.51 13.39Q75.87 13.12 75.40 12.62L75.40 12.62L75.40 12.62Q74.94 12.13 74.68 11.44L74.68 11.44L74.68 11.44Q74.42 10.75 74.41 9.91ZM75.76 9.91L75.76 9.91L75.76 9.91Q75.76 10.52 75.93 11.01L75.93 11.01L75.93 11.01Q76.10 11.50 76.41 11.85L76.41 11.85L76.41 11.85Q76.71 12.20 77.11 12.38L77.11 12.38L77.11 12.38Q77.51 12.57 77.96 12.57L77.96 12.57L77.96 12.57Q78.44 12.57 78.84 12.39L78.84 12.39L78.84 12.39Q79.25 12.20 79.55 11.86L79.55 11.86L79.55 11.86Q79.85 11.51 80.02 11.02L80.02 11.02L80.02 11.02Q80.19 10.53 80.19 9.91L80.19 9.91L80.19 9.91Q80.19 9.27 80.02 8.77L80.02 8.77L80.02 8.77Q79.85 8.27 79.55 7.94L79.55 7.94L79.55 7.94Q79.26 7.60 78.85 7.43L78.85 7.43L78.85 7.43Q78.44 7.26 77.96 7.26L77.96 7.26L77.96 7.26Q77.51 7.26 77.11 7.43L77.11 7.43L77.11 7.43Q76.71 7.60 76.41 7.94L76.41 7.94L76.41 7.94Q76.10 8.27 75.93 8.77L75.93 8.77L75.93 8.77Q75.76 9.27 75.76 9.91ZM87.97 6.33L87.97 7.87L86.67 7.87L86.67 7.43L86.67 7.43Q86.45 7.43 86.21 7.52L86.21 7.52L86.21 7.52Q85.98 7.60 85.77 7.78L85.77 7.78L85.77 7.78Q85.57 7.95 85.41 8.22L85.41 8.22L85.41 8.22Q85.26 8.49 85.19 8.86L85.19 8.86L85.19 12.28L86.39 12.28L86.39 13.45L82.88 13.45L82.88 12.28L83.86 12.28L83.86 7.55L82.88 7.55L82.88 6.37L85.14 6.37L85.14 7.35L85.14 7.35Q85.26 7.13 85.42 6.94L85.42 6.94L85.42 6.94Q85.57 6.75 85.76 6.61L85.76 6.61L85.76 6.61Q85.95 6.47 86.18 6.40L86.18 6.40L86.18 6.40Q86.41 6.32 86.67 6.32L86.67 6.32L86.67 6.32Q87.03 6.32 87.34 6.32L87.34 6.32L87.34 6.32Q87.66 6.32 87.97 6.33L87.97 6.33ZM91.49 4.09L91.49 6.37L93.15 6.37L93.15 7.40L91.48 7.40L91.46 11.49L91.46 11.49Q91.46 11.91 91.55 12.17L91.55 12.17L91.55 12.17Q91.65 12.43 91.86 12.53L91.86 12.53L91.86 12.53Q92.07 12.63 92.34 12.63L92.34 12.63L92.34 12.63Q92.63 12.63 92.85 12.57L92.85 12.57L92.85 12.57Q93.06 12.52 93.32 12.40L93.32 12.40L93.62 13.25L93.62 13.25Q93.29 13.43 92.93 13.52L92.93 13.52L92.93 13.52Q92.57 13.62 92.07 13.62L92.07 13.62L92.07 13.62Q91.61 13.62 91.26 13.51L91.26 13.51L91.26 13.51Q90.92 13.40 90.68 13.13L90.68 13.13L90.68 13.13Q90.45 12.87 90.33 12.42L90.33 12.42L90.33 12.42Q90.21 11.97 90.21 11.30L90.21 11.30L90.23 7.40L89.11 7.40L89.11 6.37L90.25 6.37L90.25 4.68L91.49 4.09ZM100.95 10.08L95.85 10.08L95.85 10.08Q95.85 10.38 95.90 10.63L95.90 10.63L95.90 10.63Q95.94 10.88 96.02 11.10L96.02 11.10L96.02 11.10Q96.28 11.79 96.83 12.13L96.83 12.13L96.83 12.13Q97.39 12.48 98.10 12.48L98.10 12.48L98.10 12.48Q98.65 12.48 99.17 12.32L99.17 12.32L99.17 12.32Q99.70 12.17 100.27 11.84L100.27 11.84L100.78 12.71L100.78 12.71Q100.08 13.19 99.38 13.42L99.38 13.42L99.38 13.42Q98.68 13.65 97.92 13.65L97.92 13.65L97.92 13.65Q97.20 13.65 96.59 13.41L96.59 13.41L96.59 13.41Q95.98 13.17 95.54 12.70L95.54 12.70L95.54 12.70Q95.09 12.23 94.85 11.53L94.85 11.53L94.85 11.53Q94.60 10.82 94.60 9.88L94.60 9.88L94.60 9.88Q94.60 9.13 94.81 8.45L94.81 8.45L94.81 8.45Q95.02 7.78 95.44 7.28L95.44 7.28L95.44 7.28Q95.86 6.77 96.48 6.48L96.48 6.48L96.48 6.48Q97.10 6.19 97.93 6.19L97.93 6.19L97.93 6.19Q98.73 6.19 99.27 6.43L99.27 6.43L99.27 6.43Q99.80 6.67 100.14 7.07L100.14 7.07L100.14 7.07Q100.48 7.47 100.66 7.98L100.66 7.98L100.66 7.98Q100.83 8.50 100.90 9.03L100.90 9.03L100.90 9.03Q100.93 9.29 100.94 9.56L100.94 9.56L100.94 9.56Q100.95 9.82 100.95 10.08L100.95 10.08ZM97.84 7.25L97.84 7.25L97.84 7.25Q97.40 7.25 97.07 7.38L97.07 7.38L97.07 7.38Q96.74 7.51 96.50 7.74L96.50 7.74L96.50 7.74Q96.27 7.98 96.13 8.32L96.13 8.32L96.13 8.32Q95.99 8.66 95.92 9.08L95.92 9.08L99.59 9.08L99.59 9.08Q99.57 8.69 99.47 8.35L99.47 8.35L99.47 8.35Q99.37 8.02 99.16 7.77L99.16 7.77L99.16 7.77Q98.96 7.53 98.64 7.39L98.64 7.39L98.64 7.39Q98.31 7.25 97.84 7.25ZM107.78 6.33L107.78 7.87L106.48 7.87L106.48 7.43L106.48 7.43Q106.25 7.43 106.02 7.52L106.02 7.52L106.02 7.52Q105.78 7.60 105.57 7.78L105.57 7.78L105.57 7.78Q105.37 7.95 105.22 8.22L105.22 8.22L105.22 8.22Q105.06 8.49 104.99 8.86L104.99 8.86L104.99 12.28L106.20 12.28L106.20 13.45L102.68 13.45L102.68 12.28L103.66 12.28L103.67 7.55L102.68 7.55L102.68 6.37L104.95 6.37L104.95 7.35L104.95 7.35Q105.07 7.13 105.22 6.94L105.22 6.94L105.22 6.94Q105.38 6.75 105.56 6.61L105.56 6.61L105.56 6.61Q105.75 6.47 105.98 6.40L105.98 6.40L105.98 6.40Q106.21 6.32 106.48 6.32L106.48 6.32L106.48 6.32Q106.83 6.32 107.15 6.32L107.15 6.32L107.15 6.32Q107.46 6.32 107.78 6.33L107.78 6.33Z"></path></g><!----><!----></svg>